<svg xmlns="http://www.w3.org/2000/svg" viewBox="10 6 216 84" width="864" height="336"><title>QRetina</title><defs><radialGradient id="q-iris" cx="0.42" cy="0.38" r="0.7"><stop offset="0" stop-color="#24557A" stop-opacity="0.78"/><stop offset="1" stop-color="#24557A"/></radialGradient><clipPath id="q-open"><path d="M16 68 C 56 36, 142 30, 196 44 L 240 44 L 240 130 L 0 130 L 0 68 Z"/></clipPath></defs><g transform="rotate(-4 115 58)"><g clip-path="url(#q-open)"><circle cx="106" cy="56" r="27" fill="url(#q-iris)"/><circle cx="106" cy="56" r="10.5" fill="#081620"/><g transform="translate(110 42.5) rotate(-6)"><rect x="0.6428571428571429" y="0.6428571428571429" width="7.714285714285714" height="7.714285714285714" fill="none" stroke="#FFFFFF" stroke-width="1.2857142857142858"/><rect x="2.5714285714285716" y="2.5714285714285716" width="3.8571428571428577" height="3.8571428571428577" fill="#FFFFFF"/></g><rect x="96.5" y="62" width="3.2" height="3.2" fill="#FFFFFF" opacity="0.75"/></g><path d="M16 68 C 52 30, 140 20, 192 34 L 222 20 L 198 43 L 196 44 C 142 30, 56 36, 16 68 Z" fill="#14212B"/></g></svg>
